<?xml version="1.0" encoding="utf-8"?>
<!-- Generator: Adobe Illustrator 19.2.1, SVG Export Plug-In . SVG Version: 6.00 Build 0)  -->
<svg version="1.1" id="Layer_1" xmlns="http://www.w3.org/2000/svg" xmlns:xlink="http://www.w3.org/1999/xlink" x="0px" y="0px"
	 viewBox="0 0 818.5 190.3" style="enable-background:new 0 0 818.5 190.3;" xml:space="preserve">
<style type="text/css">
	.st0{fill:#FFF56D;}
	.st1{fill:#FFDF4F;}
	.st2{fill:url(#SVGID_1_);}
	.st3{opacity:0.62;}
	.st4{fill:url(#SVGID_2_);}
	.st5{fill:url(#SVGID_3_);}
	.st6{fill:url(#SVGID_4_);}
	.st7{fill:#333333;}
	.st8{fill:#4D4D4D;}
	.st9{fill:#FFCC00;stroke:#FFCC00;stroke-width:2;stroke-miterlimit:10;}
</style>
<g>
	<g>
		<path class="st0" d="M142.7,46L142.7,46c-3.9,5.4-5.3,12.4-1.2,16.9l15.4,16.8c7.8,8.4,7.4,14.1-2,22.7l-1.9,1.5
			c2.7-2.5,3.9-5.5,3.5-9c-0.3-3.1-1.3-6.3-4.3-8.8l-14-11.9c-6.5-7.1-6.2-19.5,0.8-24.9c-6.9,5.4-16.7,7.7-23.2,0.5l-12.2-16.6
			c-2.4-3.3-5.3-4.4-8.4-5c-3.4-0.6-6.5,0.3-9.1,2.7l1.5-1.6c9.5-8.7,15.2-8.6,22.9-0.2l15.4,16.8C129.9,50.3,137,49.4,142.7,46z"/>
		<path class="st1" d="M139.2,49.2L139.2,49.2c-6.4,8.8-9.7,21.5-3,28.8l25.4,27.6c12.8,13.9,12.2,23.2-3.3,37.5l-3.1,2.5
			c4.4-4.1,6.4-9,5.8-14.8c-0.5-5.1-2.2-10.3-7-14.5l-23.1-19.6c-10.7-11.6-9.8-31.4,1.3-40.9c-10.4,8.9-27.5,12.5-38.3,0.8
			L73.8,29.2C69.9,23.8,65,21.9,60,21c-5.7-1.1-10.7,0.4-15,4.4l2.4-2.6C63,8.5,72.4,8.6,85.2,22.5l25.4,27.6
			C117.2,57.4,129.8,54.8,139.2,49.2z"/>
		
			<linearGradient id="SVGID_1_" gradientUnits="userSpaceOnUse" x1="0" y1="98.7064" x2="173.7351" y2="98.7064" gradientTransform="matrix(1 0 0 -1 0 196.6801)">
			<stop  offset="0" style="stop-color:#FFE7A3"/>
			<stop  offset="0.5" style="stop-color:#FFCA05"/>
			<stop  offset="1" style="stop-color:#FAAC18"/>
		</linearGradient>
		<path class="st2" d="M132.1,55.9L132.1,55.9c-8.8,12.2-15.2,31-5.9,41l35.1,38.2c17.7,19.2,16.8,32.1-4.6,51.8l-4.3,3.4
			c6.1-5.7,8.8-12.4,8-20.4c-0.7-7.1-3-14.3-9.7-20l-31.9-27c-14.8-16.1-9.1-39.5,1.8-56.5c-17.6,9.7-38,17.2-52.9,1l-27.8-38
			c-5.4-7.4-12.1-10-19.1-11.3C12.9,16.6,6,18.7,0,24.2l3.4-3.6C24.9,0.7,37.9,0.9,55.6,20.1l35.1,38.2
			C102.1,69.4,119.5,64.2,132.1,55.9z"/>
	</g>
	<g class="st3">
		
			<linearGradient id="SVGID_2_" gradientUnits="userSpaceOnUse" x1="107.85" y1="150.5" x2="107.85" y2="173.9217" gradientTransform="matrix(1 0 0 -1 0 196.6801)">
			<stop  offset="0" style="stop-color:#FFF78F"/>
			<stop  offset="0.5506" style="stop-color:#FFFBC8"/>
			<stop  offset="0.9944" style="stop-color:#FFFDE3"/>
		</linearGradient>
		<path class="st4" d="M110.4,29.1c-7.1-7.8-12.5-8.4-20.8-1.7l0.9,0.9c1.5-0.4,3-0.4,4.6-0.1c3.1,0.6,6,1.7,8.4,5l7.7,10.5
			l14.9,2.5c-0.1-0.1-0.2-0.2-0.3-0.3L110.4,29.1z"/>
		
			<linearGradient id="SVGID_3_" gradientUnits="userSpaceOnUse" x1="78.25" y1="154.3277" x2="78.25" y2="184.6716" gradientTransform="matrix(1 0 0 -1 0 196.6801)">
			<stop  offset="0" style="stop-color:#FFF78F"/>
			<stop  offset="0.5506" style="stop-color:#FFFBC8"/>
			<stop  offset="0.9944" style="stop-color:#FFFDE3"/>
		</linearGradient>
		<path class="st5" d="M89.7,27.5l-4.6-5C74,10.4,65.5,8.7,53.3,17.8c0.7,0.7,1.5,1.5,2.2,2.3l0.5,0.6c1.2,0,2.5,0.1,3.8,0.3
			c5.1,0.9,9.9,2.8,13.8,8.2l6.8,9.3l22.8,3.8l-12.9-14L89.7,27.5z"/>
		
			<linearGradient id="SVGID_4_" gradientUnits="userSpaceOnUse" x1="35.5" y1="159.8" x2="35.5" y2="190.9945" gradientTransform="matrix(1 0 0 -1 0 196.6801)">
			<stop  offset="0" style="stop-color:#FFF78F"/>
			<stop  offset="0.5506" style="stop-color:#FFFBC8"/>
			<stop  offset="0.9944" style="stop-color:#FFFDE3"/>
		</linearGradient>
		<path class="st6" d="M55.6,20.1c-0.8-0.8-1.5-1.6-2.2-2.3C36.8,0.9,24,1.6,3.4,20.6L0,24.2c6-5.5,12.9-7.6,20.8-6.1
			c7,1.3,13.7,3.9,19.1,11.3l1.9,2.6L71,36.9L56.1,20.7L55.6,20.1z"/>
	</g>
</g>
<g>
	<path class="st7" d="M178.6,135.3l6.8-15.9h1.1l-6.8,15.9H178.6z"/>
	<path class="st7" d="M185.7,135.3l6.8-15.9h1.1l-6.8,15.9H185.7z"/>
	<path class="st7" d="M201.6,132c0,0.7,0.1,1.3,0.2,1.6c0.2,0.5,0.6,0.8,1.2,0.9l0.1,0.2l-0.1,0.2h-4.5l-0.1-0.2l0.1-0.2
		c0.6-0.1,1-0.4,1.3-0.9c0.2-0.4,0.2-0.9,0.2-1.7v-5.1c0-0.5,0-0.9-0.1-1.1c-0.1-0.3-0.4-0.5-0.8-0.6l-0.4-0.1l-0.1-0.2l0.1-0.1
		l2.8-0.9h0.2L201.6,132L201.6,132z M199.6,120.1c0-0.3,0.1-0.5,0.3-0.7s0.4-0.3,0.7-0.3s0.5,0.1,0.7,0.3c0.2,0.2,0.3,0.4,0.3,0.7
		c0,0.3-0.1,0.5-0.3,0.7s-0.4,0.3-0.7,0.3s-0.5-0.1-0.7-0.3S199.6,120.4,199.6,120.1z"/>
	<path class="st7" d="M205.2,119.1c0.5,0,0.8,0.2,1,0.6s0.4,0.8,0.4,1.3c0,0.7-0.2,1.3-0.6,2c-0.4,0.7-0.9,1.1-1.5,1.4
		c-0.1-0.1-0.2-0.1-0.2-0.2v-0.1c0.9-0.7,1.4-1.5,1.4-2.4c-0.1-0.2-0.2-0.3-0.4-0.3h-0.2h-0.3c-0.5-0.1-0.8-0.5-0.8-1.1
		c0-0.4,0.1-0.6,0.3-0.9C204.6,119.2,204.9,119.1,205.2,119.1z"/>
	<path class="st7" d="M225.3,132c0,1.6,0.4,2.4,1.4,2.6l0.2,0.2l-0.1,0.2h-4.5l-0.1-0.2l0.1-0.2c0.6-0.1,1-0.4,1.2-0.9
		c0.1-0.3,0.2-0.9,0.2-1.7v-4c0-1-0.2-1.8-0.5-2.4c-0.4-0.7-1.1-1.1-2-1.1c-0.8,0-1.5,0.3-2.1,1c-0.6,0.6-1,1.4-1.1,2.2v4.2
		c0,1.6,0.4,2.4,1.2,2.6l0.1,0.2l-0.1,0.2h-4.4l-0.1-0.2l0.1-0.2c0.6-0.1,1-0.4,1.2-0.9c0.1-0.3,0.2-0.9,0.2-1.7v-4
		c0-2.3-0.8-3.5-2.3-3.5c-0.7,0-1.5,0.3-2.1,1c-0.7,0.7-1.1,1.4-1.2,2.2v4.2c0,0.8,0.1,1.3,0.2,1.6c0.2,0.5,0.5,0.9,1.1,1l0.2,0.2
		l-0.1,0.2h-4.4l-0.1-0.2l0.1-0.2c0.6-0.1,1-0.4,1.2-0.9c0.1-0.3,0.2-0.9,0.2-1.6v-5.1c0-1-0.3-1.6-0.8-1.7l-0.4-0.1l-0.1-0.2
		l0.1-0.1l2.5-0.9h0.2v2.4c0.5-0.7,1.1-1.3,1.8-1.7c0.8-0.5,1.6-0.8,2.3-0.8c1.7,0,2.8,0.9,3.2,2.6c0.4-0.8,1-1.4,1.8-1.9
		s1.5-0.7,2.4-0.7c1.1,0,2,0.4,2.6,1.1c0.6,0.8,0.9,1.7,0.8,2.9L225.3,132z"/>
	<path class="st7" d="M238.8,133.1c-0.9,1.4-2.1,2.2-3.5,2.2c-0.9,0-1.7-0.2-2.3-0.6c-0.7-0.5-1.1-1.2-1.1-2.1
		c0-1.8,1.5-2.9,4.4-3.2c0.7-0.1,1.5-0.3,2.4-0.6v-1.3c0-2-0.8-3-2.5-3c-0.7,0-1.3,0.2-1.8,0.6c-0.6,0.4-0.9,1-0.9,1.7
		c-0.2-0.1-0.4-0.2-0.7-0.3c-0.3-0.2-0.5-0.3-0.5-0.5c0.1-0.5,0.7-1,1.8-1.4c1-0.4,1.8-0.6,2.3-0.6c1.2,0,2.1,0.3,2.8,0.8
		c0.8,0.6,1.2,1.5,1.2,2.7v5c0,1.3,0.2,2,0.7,2c0.2,0,0.4-0.1,0.6-0.2l0.1,0.2c-1,0.5-1.7,0.7-2.1,0.7
		C239.2,135.1,238.9,134.5,238.8,133.1L238.8,133.1z M238.6,131.4v-2.1c-0.1,0-0.7,0.2-1.8,0.5c-2.1,0.2-3.2,1-3.2,2.6
		c0,0.7,0.2,1.2,0.7,1.6c0.4,0.4,1,0.6,1.6,0.6c0.8,0,1.5-0.3,2-1C238.4,133,238.6,132.2,238.6,131.4z"/>
	<path class="st7" d="M256.4,125.2l3.1,7.6l2.5-6.2c0.1-0.3,0.2-0.6,0.2-0.9c0-0.7-0.4-1.1-1.2-1.2l-0.2-0.2l0.1-0.2l1.8,0.1
		l1.8-0.1l0.1,0.2l-0.1,0.2c-0.7,0.3-1.3,1-1.8,2.1l-3.6,8.5c-0.1,0.1-0.2,0.2-0.3,0.2s-0.2-0.1-0.3-0.2l-3.2-8l-3.2,8
		c-0.1,0.1-0.2,0.2-0.3,0.2s-0.2-0.1-0.3-0.2l-3.9-9c-0.4-0.8-0.9-1.4-1.5-1.6l-0.2-0.2l0.1-0.2l2,0.1l2-0.1l0.1,0.2l-0.1,0.2
		c-0.5,0.1-0.8,0.3-0.9,0.7v0.1c0,0.4,0.2,1.1,0.5,1.9l2.6,5.7l2.9-7.3l-0.2-0.4c-0.2-0.5-0.5-0.8-0.9-0.9v-0.2h2.5v0.1v0.1
		c-0.2,0-0.4,0.1-0.5,0.2c0,0.1,0,0.1,0,0.2C256.3,124.8,256.4,125,256.4,125.2z"/>
	<path class="st7" d="M274.4,131.6c-0.4,1.1-1,2-2,2.7c-0.9,0.7-2,1-3.1,1c-1.5,0-2.7-0.6-3.7-1.7c-0.9-1.1-1.4-2.4-1.4-4
		c0-1.6,0.5-3,1.5-4.1s2.3-1.6,3.9-1.6c1.1,0,2.1,0.4,3.1,1.1s1.5,1.7,1.7,2.8c0,0.2-0.4,0.3-1.1,0.3H266c0,0.3,0,0.6,0,1v0.2
		c0,1.5,0.3,2.6,1,3.6s1.8,1.5,3.1,1.5c0.8,0,1.6-0.3,2.3-0.8c0.7-0.5,1.2-1.2,1.5-2c0.1,0,0.1,0,0.2,0S274.3,131.5,274.4,131.6z
		 M266.1,127.4h6.2c-0.1-0.9-0.4-1.7-0.9-2.3c-0.5-0.6-1.2-0.9-2.1-0.9C267.6,124.3,266.6,125.4,266.1,127.4z"/>
	<path class="st7" d="M277,126.1c1-1.6,2.3-2.3,4-2.3c1.4,0,2.6,0.5,3.6,1.6c0.9,1.1,1.4,2.4,1.4,3.9c0,1.7-0.6,3.2-1.7,4.3
		s-2.5,1.7-4.1,1.7s-2.9-0.5-4-1.4l-0.3,1H275c0.4-0.4,0.5-1.2,0.5-2.3v-11.4c0-0.5,0-0.9-0.1-1.1c-0.1-0.3-0.4-0.5-0.8-0.6
		l-0.4-0.1l-0.1-0.2l0.1-0.1l2.7-0.8h0.2v7.8H277z M277,128v2.6c0,1.2,0.3,2.2,0.8,2.9c0.6,0.8,1.4,1.1,2.6,1.1s2.2-0.5,2.8-1.5
		c0.6-0.9,0.9-2,0.9-3.3c0-1.4-0.3-2.5-0.9-3.4c-0.7-1.1-1.6-1.6-2.9-1.6c-0.9,0-1.6,0.3-2.3,1C277.5,126.3,277.1,127.1,277,128z"/>
	<path class="st7" d="M300.4,133c-1.2,1.5-2.6,2.3-4.1,2.3c-1.4,0-2.6-0.5-3.5-1.6c-0.9-1-1.4-2.3-1.4-3.8c0-1.8,0.5-3.2,1.6-4.3
		c1.1-1.1,2.5-1.7,4.1-1.7c1.2,0,2.2,0.4,3.2,1.2v-3.8c0-0.5,0-0.9-0.1-1.1c-0.1-0.3-0.4-0.5-0.8-0.6l-0.5-0.1l-0.1-0.2l0.1-0.1
		l2.8-0.8h0.2v13.2c0,1.5,0.3,2.4,0.8,2.7h0.6c0,0.1-0.1,0.3-0.2,0.4l-2.6,0.7L300.4,133z M300.4,131v-3c-0.1-1.1-0.5-1.9-1.1-2.6
		c-0.7-0.7-1.5-1-2.5-1c-1.2,0-2.1,0.5-2.8,1.6c-0.5,0.9-0.8,2-0.8,3.4c0,1.3,0.3,2.4,0.8,3.4c0.7,1.1,1.6,1.7,2.7,1.7
		c0.9,0,1.7-0.3,2.5-1C300,132.7,300.4,131.9,300.4,131z"/>
	<path class="st7" d="M313.2,131.6c-0.4,1.1-1,2-2,2.7c-0.9,0.7-2,1-3.1,1c-1.5,0-2.7-0.6-3.7-1.7c-0.9-1.1-1.4-2.4-1.4-4
		c0-1.6,0.5-3,1.5-4.1s2.3-1.6,3.9-1.6c1.1,0,2.1,0.4,3.1,1.1s1.5,1.7,1.7,2.8c0,0.2-0.4,0.3-1.1,0.3h-7.2c0,0.3,0,0.6,0,1v0.2
		c0,1.5,0.3,2.6,1,3.6s1.8,1.5,3.1,1.5c0.8,0,1.6-0.3,2.3-0.8c0.7-0.5,1.2-1.2,1.5-2c0.1,0,0.1,0,0.2,0S313.2,131.5,313.2,131.6z
		 M305,127.4h6.2c-0.1-0.9-0.4-1.7-0.9-2.3c-0.5-0.6-1.2-0.9-2.1-0.9C306.5,124.3,305.5,125.4,305,127.4z"/>
	<path class="st7" d="M322.8,126.6l-3.9,8.5c-0.1,0.1-0.2,0.1-0.3,0.1c-0.1,0-0.1,0-0.3-0.1l-4.1-9.1c-0.4-0.9-0.9-1.4-1.5-1.5
		l-0.2-0.2l0.1-0.2l2.1,0.1l2.1-0.1l0.1,0.2l-0.1,0.2c-0.5,0.1-0.9,0.2-1,0.5c0,0.1-0.1,0.2-0.1,0.3c0,0.2,0.1,0.6,0.3,1l3.1,6.8
		l2.9-6.3c0.1-0.4,0.2-0.7,0.2-1c0-0.7-0.4-1.1-1.2-1.2l-0.2-0.2l0.1-0.2l1.8,0.1l1.8-0.1l0.1,0.2l-0.1,0.2
		C323.9,124.8,323.3,125.5,322.8,126.6z"/>
	<path class="st7" d="M334.4,131.6c-0.4,1.1-1,2-2,2.7c-0.9,0.7-2,1-3.1,1c-1.5,0-2.7-0.6-3.7-1.7c-0.9-1.1-1.4-2.4-1.4-4
		c0-1.6,0.5-3,1.5-4.1s2.3-1.6,3.9-1.6c1.1,0,2.1,0.4,3.1,1.1s1.5,1.7,1.7,2.8c0,0.2-0.4,0.3-1.1,0.3H326c0,0.3,0,0.6,0,1v0.2
		c0,1.5,0.3,2.6,1,3.6s1.8,1.5,3.1,1.5c0.8,0,1.6-0.3,2.3-0.8c0.7-0.5,1.2-1.2,1.5-2c0.1,0,0.1,0,0.2,0S334.3,131.5,334.4,131.6z
		 M326.2,127.4h6.2c-0.1-0.9-0.4-1.7-0.9-2.3c-0.5-0.6-1.2-0.9-2.1-0.9C327.7,124.3,326.6,125.4,326.2,127.4z"/>
	<path class="st7" d="M334.4,119.2L334.4,119.2l2.8-0.9h0.2v13.8c0,0.8,0.1,1.3,0.2,1.6c0.2,0.5,0.6,0.8,1.2,0.9l0.1,0.2l-0.1,0.2
		h-4.6l-0.1-0.2l0.1-0.2c0.6-0.1,1.1-0.4,1.3-0.9c0.2-0.4,0.2-0.9,0.2-1.7v-10.9c0-0.5,0-0.9-0.1-1.1c-0.1-0.3-0.4-0.5-0.8-0.6
		L334.4,119.2L334.4,119.2z"/>
	<path class="st7" d="M350.3,129.5c0,1.7-0.6,3-1.7,4.1c-1.1,1.1-2.5,1.6-4.1,1.6s-2.9-0.5-4-1.6c-1.1-1.1-1.7-2.5-1.7-4.1
		c0-1.7,0.6-3,1.7-4.1s2.4-1.6,4-1.6s3,0.5,4.1,1.6S350.3,127.9,350.3,129.5z M348.3,129.5c0-1.4-0.4-2.5-1-3.5
		c-0.7-1.1-1.7-1.7-3-1.7s-2.2,0.6-2.9,1.7c-0.6,0.9-0.8,2.1-0.8,3.5s0.4,2.6,1,3.5c0.7,1.1,1.7,1.6,3,1.6s2.2-0.6,2.9-1.7
		C348.1,132.1,348.4,130.9,348.3,129.5z"/>
	<path class="st7" d="M353,133.8v3.4c0,0.8,0.1,1.3,0.3,1.7c0.2,0.5,0.7,0.8,1.3,0.9l0.2,0.2l-0.1,0.2H350l-0.1-0.2l0.1-0.2
		c0.6-0.1,1-0.4,1.2-0.9c0.2-0.4,0.2-0.9,0.2-1.7v-10.3c0-1-0.3-1.6-0.8-1.7l-0.4-0.1l-0.1-0.2l0.1-0.1l2.5-0.9h0.2v2.5
		c1.1-1.7,2.5-2.6,4.2-2.6c1.4,0,2.5,0.5,3.4,1.6s1.3,2.3,1.3,3.8c0,1.6-0.5,3-1.6,4.2c-1.1,1.2-2.4,1.8-3.9,1.8
		C355,135.2,353.9,134.7,353,133.8z M353,131.1c0.1,1,0.5,1.8,1.2,2.4c0.6,0.6,1.4,1,2.4,1c1.2,0,2.1-0.5,2.7-1.5
		c0.5-0.8,0.8-1.9,0.8-3.2c0-1.4-0.3-2.5-0.8-3.4c-0.7-1.1-1.6-1.6-2.8-1.6c-0.9,0-1.7,0.3-2.3,1c-0.5,0.6-0.9,1.4-1.1,2.4v2.9H353z
		"/>
	<path class="st7" d="M372.4,131.6c-0.4,1.1-1,2-2,2.7c-0.9,0.7-2,1-3.1,1c-1.5,0-2.7-0.6-3.7-1.7c-0.9-1.1-1.4-2.4-1.4-4
		c0-1.6,0.5-3,1.5-4.1s2.3-1.6,3.9-1.6c1.1,0,2.1,0.4,3.1,1.1s1.5,1.7,1.7,2.8c0,0.2-0.4,0.3-1.1,0.3H364c0,0.3,0,0.6,0,1v0.2
		c0,1.5,0.3,2.6,1,3.6s1.8,1.5,3.1,1.5c0.8,0,1.6-0.3,2.3-0.8c0.7-0.5,1.2-1.2,1.5-2c0.1,0,0.1,0,0.2,0S372.3,131.5,372.4,131.6z
		 M364.2,127.4h6.2c-0.1-0.9-0.4-1.7-0.9-2.3c-0.5-0.6-1.2-0.9-2.1-0.9C365.7,124.3,364.6,125.4,364.2,127.4z"/>
	<path class="st7" d="M375.4,132c0,0.8,0.1,1.4,0.3,1.8c0.3,0.5,0.8,0.7,1.5,0.8h0.1l0.1,0.2l-0.1,0.2h-4.9l-0.1-0.2l0.1-0.2
		c0.6-0.1,1-0.4,1.2-0.9c0.1-0.3,0.2-0.9,0.2-1.7v-5.2c0-1-0.3-1.6-0.8-1.7l-0.4-0.1l-0.1-0.2l0.1-0.1l2.6-0.9h0.2v3
		c1-2,2.1-3,3.3-3l1.1,0.4l-0.6,1.9l-0.6-0.2c-0.2-0.2-0.4-0.3-0.6-0.3c-0.2-0.1-0.4-0.1-0.5-0.1c-0.5,0-0.9,0.3-1.2,0.9
		c-0.4,0.8-0.6,1.7-0.8,2.8v2.8H375.4z"/>
</g>
<g>
	<path class="st8" d="M188.3,93.5v8.1h-8.1v-8.1H188.3z"/>
	<path class="st8" d="M197.5,101.6V55.5h5.5l1.5,5.9c4-3.9,8.9-5.9,14.6-5.9v6.8c-5.5,0-10,1.9-13.4,5.8v33.5
		C205.7,101.6,197.5,101.6,197.5,101.6z"/>
	<path class="st8" d="M223.1,78.6c0-15.4,7.3-23.1,22-23.1c14.6,0,22,7.7,22,23.1s-7.3,23-22,23C230.5,101.6,223.2,93.9,223.1,78.6z
		 M245.1,95c9.2,0,13.8-5.6,13.8-16.7c0-10.9-4.6-16.3-13.8-16.3s-13.8,5.4-13.8,16.3C231.3,89.5,235.9,95,245.1,95z"/>
	<path class="st8" d="M274.5,38.8h8.1v18.9c3.5-1.5,7.2-2.2,11.2-2.2c14.6,0,21.9,7.4,21.9,22.1c0,16-7.7,24-23,24
		c-6.6,0-12.7-0.6-18.2-1.9V38.8z M282.6,93.6c2.7,0.8,5.9,1.3,9.7,1.3c10.3,0,15.4-5.8,15.4-17.5c0-9.9-4.6-14.8-13.9-14.8
		c-4.2,0-7.9,0.8-11.2,2.4V93.6z"/>
	<path class="st8" d="M345.7,55.5c13.1,0,19.7,6.5,19.7,19.5c0,1.8-0.1,3.8-0.4,5.9h-32.4c0,9.4,5.5,14.2,16.5,14.2
		c5.2,0,9.9-0.6,14-1.8v6.6c-4.1,1.2-9,1.8-14.9,1.8c-15.8,0-23.8-7.9-23.8-23.6C324.5,63,331.6,55.5,345.7,55.5z M332.6,74.1h25
		C357.4,66,353.5,62,345.7,62C337.5,62,333.1,66,332.6,74.1z"/>
	<path class="st8" d="M374.5,101.6V55.5h5.5l1.5,5.9c4-3.9,8.9-5.9,14.6-5.9v6.8c-5.5,0-10,1.9-13.4,5.8v33.5
		C382.7,101.6,374.5,101.6,374.5,101.6z"/>
	<path class="st8" d="M404.2,48h5.1l1.8,7.5h12.5v6.6h-11.2v26.5c0,4.3,1.9,6.5,5.6,6.5h5.6v6.6h-7.7c-7.7,0-11.6-4.1-11.6-12.4
		L404.2,48L404.2,48z"/>
	<path class="st8" d="M428.1,78.6c0-15.4,7.3-23.1,22-23.1s22,7.7,22,23.1s-7.3,23-22,23C435.5,101.6,428.1,93.9,428.1,78.6z
		 M450,95c9.2,0,13.8-5.6,13.8-16.7c0-10.9-4.6-16.3-13.8-16.3s-13.8,5.4-13.8,16.3C436.2,89.5,440.8,95,450,95z"/>
	<path class="st9" d="M506,38.8c-3.8,5.2-5.7,12.2-5.7,21c0,10.3-3.1,16.6-9.2,18.8c6.2,2.2,9.2,8.5,9.2,18.8c0,8.8,1.9,15.8,5.7,21
		h-8.1c-3.8-5.2-5.7-12.2-5.7-21c0-10.3-3.1-15.5-9.2-15.5v-6.6c6.2,0,9.2-5.2,9.2-15.5c0-8.8,1.9-15.8,5.7-21H506z"/>
	<path class="st8" d="M544.5,100.3c-3.8,0.9-7.9,1.3-12.3,1.3c-16.4,0-24.6-8-24.6-24c0-14.8,8.2-22.2,24.6-22.2
		c4.4,0,8.5,0.4,12.3,1.3v6.6c-3.8-0.9-8.1-1.3-12.7-1.3c-10.7,0-16,5.2-16,15.6c0,11.6,5.3,17.4,16,17.4c4.7,0,8.9-0.4,12.7-1.3
		V100.3z"/>
	<path class="st8" d="M562.1,38.8v7.7H554v-7.7H562.1z M562.1,55.5v46.1H554V55.5H562.1z"/>
	<path class="st8" d="M576.1,101.6V55.5h5.5l1.5,5.9c4.7-3.9,9.9-5.9,15.6-5.9c11.5,0,17.3,5.7,17.3,17.2v29h-8.1V72.5
		c0-6.9-3.4-10.3-10.2-10.3c-4.7,0-9.1,1.9-13.3,5.8v33.5L576.1,101.6L576.1,101.6z"/>
	<path class="st8" d="M644.5,55.5c13.1,0,19.7,6.5,19.7,19.5c0,1.8-0.1,3.8-0.4,5.9h-32.4c0,9.4,5.5,14.2,16.5,14.2
		c5.2,0,9.9-0.6,14-1.8v6.6c-4.1,1.2-9,1.8-14.9,1.8c-15.8,0-23.8-7.9-23.8-23.6C623.3,63,630.4,55.5,644.5,55.5z M631.4,74.1h25
		C656.2,66,652.3,62,644.5,62C636.3,62,631.9,66,631.4,74.1z"/>
	<path class="st8" d="M673.3,48h5.1l1.8,7.5h12.5v6.6h-11.2v26.5c0,4.3,1.9,6.5,5.6,6.5h5.6v6.6H685c-7.7,0-11.6-4.1-11.6-12.4
		L673.3,48L673.3,48z"/>
	<path class="st8" d="M703,48h5.1l1.8,7.5h12.5v6.6h-11.2v26.5c0,4.3,1.9,6.5,5.6,6.5h5.6v6.6h-7.7c-7.7,0-11.6-4.1-11.6-12.4
		L703,48L703,48z"/>
	<path class="st8" d="M726.9,78.6c0-15.4,7.3-23.1,22-23.1s22,7.7,22,23.1s-7.3,23-22,23S726.9,93.9,726.9,78.6z M748.8,95
		c9.2,0,13.8-5.6,13.8-16.7c0-10.9-4.6-16.3-13.8-16.3S735,67.5,735,78.4C735,89.5,739.6,95,748.8,95z"/>
	<path class="st8" d="M787.1,93.5l-6.6,19.1h-8.1l6.6-19.1H787.1z M787.1,55.5v8.1H779v-8.1C779,55.5,787.1,55.5,787.1,55.5z"/>
	<path class="st9" d="M801.8,38.8c3.8,5.2,5.7,12.2,5.7,21c0,10.3,3.1,15.5,9.2,15.5v6.6c-6.2,0-9.2,5.2-9.2,15.5
		c0,8.8-1.9,15.8-5.7,21h-8.1c3.8-5.2,5.7-12.2,5.7-21c0-10.3,3.1-16.6,9.2-18.8c-6.2-2.2-9.2-8.5-9.2-18.8c0-8.8-1.9-15.8-5.7-21
		C793.7,38.8,801.8,38.8,801.8,38.8z"/>
</g>
</svg>
